<svg width="50" height="50" xmlns="http://www.w3.org/2000/svg">

 <g class="currentLayer">
  <title>Layer 1</title>
  <path stroke="#eb1a1a" fill="#e98a8a" class="selected" id="svg_1" d="m24.499261,24.499261a11.846467,11.846467 0 0 1 4.272496,-23.304525a5.923233,5.923233 0 0 1 -2.136248,11.652262a5.923233,5.923233 0 0 0 -2.136248,11.652262a11.846467,11.846467 0 0 1 23.304525,4.272496a5.923233,5.923233 0 0 1 -11.652262,-2.136248a5.923233,5.923233 0 0 0 -11.652262,-2.136248a11.846467,11.846467 0 0 1 -4.272496,23.304525a5.923233,5.923233 0 0 1 2.136248,-11.652262a5.923233,5.923233 0 0 0 2.136248,-11.652262a11.846467,11.846467 0 0 1 -23.304525,-4.272496a5.923233,5.923233 0 0 1 11.652262,2.136248a5.923233,5.923233 0 0 0 11.652262,2.136248" stroke-width="0.5"/>
 </g>
 <g>
  <title>Layer 2</title>
  <rect fill="none" y="0" x="0" height="100%" width="100%" id="backgroundrect"/>
 </g>
 <g>
  <title>background</title>
  <rect fill="none" id="canvas_background" height="52" width="52" y="-1" x="-1"/>
 </g>
</svg>