<?xml version="1.0" encoding="iso-8859-1"?>
<!-- Generator: Adobe Illustrator 19.0.0, SVG Export Plug-In . SVG Version: 6.00 Build 0)  -->
<svg version="1.1" id="Layer_1" xmlns="http://www.w3.org/2000/svg" xmlns:xlink="http://www.w3.org/1999/xlink" x="0px" y="0px"
	 viewBox="0 0 512 512" style="enable-background:new 0 0 512 512;" xml:space="preserve">
<path style="fill:#95A5A5;" d="M485.517,406.069c-0.018,14.61,11.802,26.465,26.412,26.483c0.026,0,0.044,0,0.071,0v61.793
	c-0.026,9.737-7.918,17.629-17.655,17.655H211.862c-9.737-0.026-17.629-7.918-17.655-17.655V17.655
	C194.233,7.918,202.125,0.026,211.862,0h282.483c9.737,0.026,17.629,7.918,17.655,17.655v361.931
	c-14.61-0.018-26.465,11.802-26.483,26.412C485.517,406.025,485.517,406.043,485.517,406.069z"/>
<g>
	<path style="fill:#2C3E50;" d="M264.828,0v44.138c0,4.873-3.955,8.828-8.828,8.828s-8.828-3.955-8.828-8.828V0H264.828z"/>
	<path style="fill:#2C3E50;" d="M459.034,0v370.759c0,4.873-3.955,8.828-8.828,8.828c-4.873,0-8.828-3.955-8.828-8.828V0H459.034z"
		/>
	<path style="fill:#2C3E50;" d="M459.034,441.379V512h-17.655v-70.621c0-4.873,3.955-8.828,8.828-8.828
		C455.08,432.552,459.034,436.507,459.034,441.379z"/>
	<path style="fill:#2C3E50;" d="M264.828,476.69V512h-17.655v-35.31c0-4.873,3.955-8.828,8.828-8.828
		S264.828,471.817,264.828,476.69z"/>
	<path style="fill:#2C3E50;" d="M441.379,414.897c-2.339-0.035-4.573-0.945-6.268-2.56c-0.38-0.424-0.733-0.865-1.059-1.324
		c-0.335-0.494-0.6-1.024-0.794-1.589c-0.256-0.503-0.433-1.033-0.538-1.589c-0.088-0.583-0.15-1.174-0.168-1.765
		c0-4.873,3.955-8.828,8.828-8.828s8.828,3.955,8.828,8.828c-0.018,0.591-0.079,1.183-0.185,1.766
		c-0.088,0.556-0.274,1.095-0.53,1.589c-0.194,0.565-0.459,1.095-0.794,1.589c-0.353,0.441-0.706,0.883-1.059,1.324
		C445.952,413.943,443.719,414.861,441.379,414.897z"/>
	<path style="fill:#2C3E50;" d="M406.069,414.897c-1.156-0.018-2.295-0.256-3.354-0.706c-2.216-0.803-3.964-2.551-4.767-4.767
		c-0.945-2.136-0.945-4.573,0-6.709c0.803-2.216,2.551-3.964,4.767-4.767c3.293-1.377,7.08-0.644,9.622,1.854
		c3.46,3.434,3.487,9.022,0.053,12.482C410.721,413.97,408.444,414.914,406.069,414.897z"/>
	<path style="fill:#2C3E50;" d="M370.759,414.897c-4.899-0.018-8.845-3.999-8.828-8.898c0.009-2.322,0.927-4.546,2.56-6.197
		c0.847-0.803,1.836-1.43,2.913-1.854c3.293-1.342,7.062-0.609,9.622,1.854c3.46,3.434,3.487,9.022,0.053,12.482
		C375.411,413.97,373.133,414.914,370.759,414.897z"/>
	<path style="fill:#2C3E50;" d="M335.448,414.897c-0.591-0.018-1.183-0.079-1.766-0.177c-0.556-0.097-1.086-0.274-1.589-0.53
		c-0.565-0.194-1.103-0.459-1.598-0.794c-0.441-0.353-0.883-0.706-1.315-1.059c-3.416-3.478-3.416-9.057,0-12.535l1.315-1.059
		c0.494-0.335,1.033-0.6,1.598-0.794c0.503-0.256,1.033-0.433,1.589-0.53c4.802-0.962,9.463,2.154,10.425,6.947
		c0.574,2.887-0.318,5.87-2.392,7.971c-0.441,0.353-0.892,0.706-1.412,1.059c-0.45,0.353-0.953,0.618-1.501,0.794
		c-0.53,0.265-1.095,0.441-1.677,0.53C336.569,414.817,336.013,414.879,335.448,414.897z"/>
</g>
<path style="fill:#804537;" d="M17.655,79.448h256c9.754,0,17.655,7.901,17.655,17.655v361.931c0,9.754-7.901,17.655-17.655,17.655
	h-256C7.901,476.69,0,468.789,0,459.034V97.103C0,87.349,7.901,79.448,17.655,79.448z"/>
<g>
	<path style="fill:#F0C419;" d="M229.517,141.241H61.793c-4.873,0-8.828-3.955-8.828-8.828c0-4.873,3.955-8.828,8.828-8.828h167.724
		c4.873,0,8.828,3.955,8.828,8.828C238.345,137.287,234.39,141.241,229.517,141.241z"/>
	<path style="fill:#F0C419;" d="M229.517,432.552H61.793c-4.873,0-8.828-3.955-8.828-8.828c0-4.873,3.955-8.828,8.828-8.828h167.724
		c4.873,0,8.828,3.955,8.828,8.828C238.345,428.597,234.39,432.552,229.517,432.552z"/>
	<path style="fill:#F0C419;" d="M229.517,176.552H61.793c-4.873,0-8.828-3.955-8.828-8.828s3.955-8.828,8.828-8.828h167.724
		c4.873,0,8.828,3.955,8.828,8.828S234.39,176.552,229.517,176.552z"/>
</g>
<circle style="fill:#3B97D3;" cx="145.655" cy="295.724" r="83.862"/>
<g>
	<path style="fill:#2C3E50;" d="M353.103,185.379c-4.873,0-8.828-3.955-8.828-8.828c0-2.339,0.927-4.582,2.586-6.241l15.069-15.069
		V61.793c0-4.873,3.955-8.828,8.828-8.828c4.873,0,8.828,3.955,8.828,8.828v97.103c0,2.339-0.927,4.582-2.586,6.241l-17.655,17.655
		C357.694,184.452,355.443,185.379,353.103,185.379z"/>
	<path style="fill:#2C3E50;" d="M414.888,132.414c-1.598,0-3.169-0.433-4.537-1.262l-39.592-23.755l-39.592,23.755
		c-4.184,2.507-9.604,1.156-12.111-3.028c-2.507-4.184-1.156-9.604,3.028-12.111l0,0l44.138-26.483c2.798-1.677,6.294-1.677,9.084,0
		l44.138,26.483c4.184,2.507,5.535,7.927,3.028,12.111C420.873,130.79,417.995,132.414,414.888,132.414z"/>
	<path style="fill:#2C3E50;" d="M388.414,185.379c-2.339,0-4.59-0.927-6.241-2.586l-17.655-17.655
		c-3.416-3.478-3.363-9.066,0.115-12.482c3.434-3.372,8.934-3.372,12.367,0l17.655,17.655c3.443,3.452,3.443,9.039,0,12.482
		C392.995,184.452,390.753,185.379,388.414,185.379z"/>
	<path style="fill:#2C3E50;" d="M370.759,379.586c-4.873,0-8.828-3.946-8.828-8.819c0,0,0,0,0-0.009V203.034
		c0-4.873,3.955-8.828,8.828-8.828c4.873,0,8.828,3.955,8.828,8.828v167.724C379.586,375.631,375.64,379.586,370.759,379.586
		L370.759,379.586z"/>
	<path style="fill:#2C3E50;" d="M335.448,379.586c-4.873,0-8.828-3.946-8.828-8.819c0,0,0,0,0-0.009V203.034
		c0-4.873,3.955-8.828,8.828-8.828s8.828,3.955,8.828,8.828v167.724C344.276,375.631,340.33,379.586,335.448,379.586
		L335.448,379.586z"/>
	<path style="fill:#2C3E50;" d="M406.069,379.586c-4.873,0-8.828-3.946-8.828-8.819c0,0,0,0,0-0.009V203.034
		c0-4.873,3.955-8.828,8.828-8.828s8.828,3.955,8.828,8.828v167.724C414.897,375.631,410.951,379.586,406.069,379.586
		L406.069,379.586z"/>
</g>
<g>
	<path style="fill:#4FBA6F;" d="M123.586,305.611c-8.828,18.803-26.483,18.803-26.483,37.605v18.715l-1.059,1.501
		c-37.358-27.427-45.409-79.943-17.973-117.301c10.743-14.627,25.944-25.388,43.308-30.649
		c-7.592,12.623-31.779,54.113-24.276,62.058C105.931,286.897,132.414,286.897,123.586,305.611z"/>
	<path style="fill:#4FBA6F;" d="M229.517,295.724c0.035,22.254-8.801,43.599-24.541,59.321l-1.942-1.942c0,0,0-8.828-17.655-17.655
		s-17.655-35.31-8.828-52.966c8.828-17.655-17.655-26.483-17.655-35.31c0-8.828,17.655-26.483,17.655-26.483l1.148-2.472
		C209.081,231.168,229.544,261.773,229.517,295.724z"/>
</g>
<g>
</g>
<g>
</g>
<g>
</g>
<g>
</g>
<g>
</g>
<g>
</g>
<g>
</g>
<g>
</g>
<g>
</g>
<g>
</g>
<g>
</g>
<g>
</g>
<g>
</g>
<g>
</g>
<g>
</g>
</svg>
