<?xml version="1.0" encoding="iso-8859-1"?>
<!-- Generator: Adobe Illustrator 19.0.0, SVG Export Plug-In . SVG Version: 6.00 Build 0)  -->
<svg version="1.1" id="Capa_1" xmlns="http://www.w3.org/2000/svg" xmlns:xlink="http://www.w3.org/1999/xlink" x="0px" y="0px"
	 viewBox="0 0 480 480" style="enable-background:new 0 0 480 480;" xml:space="preserve">
<path style="fill:#A9CB73;" d="M264,456h208V24H264V456z M296,192V56h144v136v32H296V192z"/>
<path style="fill:#EAEAEA;" d="M264,8H8v464h256v-16V24V8z M120.968,41.2l45.256,26.776l-39.44,18.856l-37.816-38.16L120.968,41.2z
	 M223.936,353.2c-0.28,20.568-7.584,39.424-19.664,54.28l0,0c-3.928,4.832-8.376,9.216-13.232,13.12
	c-0.56,0.448-1.152,0.856-1.72,1.288c-1.832,1.4-3.704,2.752-5.648,4.008c-0.816,0.528-1.664,1.016-2.504,1.52
	c-1.768,1.064-3.568,2.072-5.408,3.016c-0.976,0.496-1.968,0.968-2.968,1.432c-1.792,0.824-3.608,1.584-5.456,2.288
	c-1.088,0.416-2.168,0.824-3.272,1.2c-1.872,0.632-3.776,1.168-5.696,1.672c-1.12,0.296-2.224,0.616-3.36,0.864
	c-2.088,0.464-4.224,0.792-6.368,1.104c-1,0.144-1.984,0.344-3,0.456c-3.168,0.344-6.376,0.552-9.64,0.552s-6.472-0.208-9.648-0.552
	c-1.016-0.112-1.992-0.312-3-0.456c-2.144-0.312-4.28-0.648-6.368-1.104c-1.136-0.248-2.24-0.568-3.36-0.864
	c-1.92-0.504-3.832-1.04-5.696-1.672c-1.104-0.376-2.184-0.784-3.272-1.2c-1.848-0.704-3.664-1.464-5.456-2.288
	c-1-0.464-1.992-0.936-2.968-1.432c-1.848-0.936-3.64-1.952-5.408-3.016c-0.84-0.504-1.68-0.992-2.504-1.52
	c-1.944-1.256-3.808-2.608-5.648-4.008c-0.568-0.44-1.16-0.84-1.72-1.288c-4.856-3.904-9.296-8.288-13.232-13.12l0,0
	c-12.08-14.848-19.384-33.712-19.664-54.28c0-0.4-0.056-0.792-0.056-1.2c0-20.456,7.04-39.232,18.744-54.176l0,0
	c6-7.664,13.224-14.304,21.408-19.624c0.232-0.152,0.472-0.28,0.704-0.424c2.344-1.488,4.752-2.872,7.24-4.144
	c0.688-0.352,1.392-0.672,2.088-1.008c2.08-0.992,4.208-1.912,6.376-2.744c0.92-0.352,1.848-0.696,2.784-1.016
	c2.04-0.704,4.112-1.312,6.208-1.864c1.04-0.272,2.064-0.56,3.112-0.8c2.176-0.488,4.392-0.856,6.632-1.176
	c0.976-0.144,1.928-0.336,2.912-0.448c3.224-0.36,6.48-0.576,9.792-0.576s6.568,0.216,9.784,0.576
	c0.984,0.112,1.944,0.304,2.912,0.448c2.232,0.32,4.456,0.688,6.632,1.176c1.048,0.24,2.072,0.528,3.112,0.8
	c2.104,0.552,4.176,1.168,6.208,1.864c0.936,0.328,1.864,0.664,2.784,1.016c2.168,0.832,4.288,1.752,6.376,2.744
	c0.696,0.336,1.4,0.656,2.088,1.008c2.488,1.272,4.896,2.648,7.24,4.144c0.232,0.144,0.472,0.28,0.704,0.424
	c8.184,5.32,15.408,11.96,21.408,19.624l0,0C216.96,312.768,224,331.544,224,352C224,352.408,223.944,352.8,223.936,353.2z
	 M226.312,72.328L178.888,96L168,136l-32,16l2.888-40L96,136H72L48,88l42.888,16l113.416-54.232c2.32-1.112,5.032-1.032,7.288,0.2
	l14.984,8.184C232.248,61.248,232.096,69.44,226.312,72.328z"/>
<g>
	<path style="fill:#F4CD57;" d="M226.576,58.144l-14.984-8.184c-2.256-1.232-4.968-1.304-7.288-0.2L90.888,104L48,88l24,48h24
		l42.888-24L136,152l32-16l10.888-40l47.424-23.672C232.096,69.44,232.248,61.248,226.576,58.144z"/>
	<polygon style="fill:#F4CD57;" points="166.224,67.976 120.968,41.2 88.968,48.672 126.784,86.832 	"/>
</g>
<path style="fill:#A9CB73;" d="M205.248,297.824c-6-7.664-13.224-14.304-21.408-19.624c-0.232-0.152-0.472-0.28-0.704-0.424
	c-2.344-1.488-4.752-2.872-7.24-4.144c-0.688-0.352-1.392-0.672-2.088-1.008c-2.08-0.992-4.208-1.912-6.376-2.744
	c-0.92-0.352-1.848-0.696-2.784-1.016c-2.04-0.704-4.112-1.312-6.208-1.864c-1.04-0.272-2.064-0.56-3.112-0.8
	c-2.176-0.488-4.392-0.856-6.632-1.176c-0.976-0.144-1.928-0.336-2.912-0.448c-3.216-0.36-6.472-0.576-9.784-0.576
	s-6.568,0.216-9.784,0.576c-0.984,0.112-1.944,0.304-2.912,0.448c-2.232,0.32-4.456,0.688-6.632,1.176
	c-1.048,0.24-2.072,0.528-3.112,0.8c-2.104,0.552-4.176,1.168-6.208,1.864c-0.936,0.328-1.864,0.664-2.784,1.016
	c-2.168,0.832-4.288,1.752-6.376,2.744c-0.696,0.336-1.4,0.656-2.088,1.008c-2.488,1.272-4.896,2.648-7.24,4.144
	c-0.232,0.144-0.472,0.28-0.704,0.424c-8.184,5.32-15.408,11.96-21.408,19.624l0,0C55.04,312.768,48,331.544,48,352
	c0,0.408,0.056,0.8,0.064,1.2c0.28,20.568,7.584,39.424,19.664,54.28l0,0c3.928,4.832,8.376,9.216,13.232,13.12
	c0.56,0.448,1.152,0.856,1.72,1.288c1.832,1.4,3.704,2.752,5.648,4.008c0.816,0.528,1.664,1.016,2.504,1.52
	c1.768,1.064,3.568,2.072,5.408,3.016c0.976,0.496,1.968,0.968,2.968,1.432c1.792,0.824,3.608,1.584,5.456,2.288
	c1.088,0.416,2.168,0.824,3.272,1.2c1.872,0.632,3.776,1.168,5.696,1.672c1.12,0.296,2.224,0.616,3.36,0.864
	c2.088,0.464,4.224,0.792,6.368,1.104c1,0.144,1.984,0.344,3,0.456c3.168,0.344,6.376,0.552,9.64,0.552s6.472-0.208,9.648-0.552
	c1.016-0.112,1.992-0.312,3-0.456c2.144-0.312,4.28-0.648,6.368-1.104c1.136-0.248,2.24-0.568,3.36-0.864
	c1.92-0.504,3.832-1.04,5.696-1.672c1.104-0.376,2.184-0.784,3.272-1.2c1.848-0.704,3.664-1.464,5.456-2.288
	c1-0.464,1.992-0.936,2.968-1.432c1.848-0.936,3.64-1.952,5.408-3.016c0.84-0.504,1.68-0.992,2.504-1.52
	c1.944-1.256,3.808-2.608,5.648-4.008c0.568-0.44,1.16-0.84,1.72-1.288c4.856-3.904,9.296-8.288,13.232-13.12l0,0
	c12.08-14.848,19.384-33.712,19.664-54.28c0-0.4,0.056-0.792,0.056-1.2C224,331.544,216.96,312.768,205.248,297.824
	C205.256,297.824,205.248,297.824,205.248,297.824z"/>
<g>
	<polygon style="fill:#EAEAEA;" points="440,192 360,192 296,192 296,224 440,224 	"/>
	<path style="fill:#EAEAEA;" d="M360,192l40-64l40,64V56H296v136l32-48L360,192z M360,88c8.84,0,16,7.16,16,16s-7.16,16-16,16
		s-16-7.16-16-16S351.16,88,360,88z"/>
</g>
<g>
	<polygon style="fill:#A9CB73;" points="328,144 296,192 360,192 	"/>
	<polygon style="fill:#A9CB73;" points="360,192 440,192 400,128 	"/>
</g>
<circle style="fill:#F4CD57;" cx="360" cy="104" r="16"/>
<g>
	<path style="fill:#2D2D2D;" d="M64.84,139.576C66.2,142.288,68.968,144,72,144h24c1.368,0,2.712-0.352,3.904-1.016l29.936-16.752
		l-1.824,25.184c-0.208,2.864,1.144,5.624,3.528,7.224c1.344,0.904,2.896,1.36,4.456,1.36c1.224,0,2.448-0.28,3.576-0.84l32-16
		c2.032-1.016,3.544-2.856,4.144-5.056l9.952-36.544l44.224-22.072c5.352-2.68,8.736-8.056,8.848-14.032
		c0.104-5.976-3.088-11.472-8.336-14.328l-14.976-8.176c-4.496-2.464-9.944-2.608-14.576-0.4L166.624,58.92l-41.584-24.6
		c-1.776-1.048-3.904-1.384-5.888-0.904l-32,7.472c-2.824,0.656-5.072,2.792-5.872,5.576s-0.032,5.784,2,7.84l29.896,30.168
		L90.496,95.32L50.8,80.504c-3.088-1.16-6.552-0.304-8.744,2.152c-2.2,2.44-2.672,5.984-1.208,8.92L64.84,139.576z M104.728,53.208
		l14.936-3.488l29.592,17.496l-20.776,9.936L104.728,53.208z M88.096,111.496c2.024,0.768,4.288,0.648,6.248-0.272l35.888-17.16
		h0.008l39.44-18.856c0.008,0,0.008-0.008,0.008-0.008L207.752,57l14.984,8.184l-47.424,23.672c-2.04,1.016-3.544,2.856-4.144,5.056
		l-9.952,36.544l-16.232,8.12l1.88-25.984c0.208-2.936-1.2-5.752-3.688-7.328c-1.304-0.84-2.792-1.264-4.288-1.264
		c-1.344,0-2.688,0.336-3.904,1.016L93.912,128H76.944L64.24,102.6L88.096,111.496z"/>
	<path style="fill:#2D2D2D;" d="M211.664,293.128c-0.056-0.072-0.056-0.168-0.112-0.232c-0.136-0.168-0.288-0.312-0.424-0.48
		c-2.08-2.616-4.264-5.136-6.6-7.52c-0.12-0.12-0.224-0.256-0.336-0.376c-2.408-2.432-4.952-4.736-7.608-6.904
		c-0.912-0.744-1.88-1.4-2.816-2.104c-1.688-1.28-3.384-2.552-5.16-3.72c-1.328-0.88-2.704-1.672-4.08-2.48
		c-1.488-0.88-2.984-1.736-4.52-2.536c-1.48-0.768-2.984-1.488-4.504-2.176c-1.552-0.704-3.128-1.36-4.728-1.984
		c-1.52-0.592-3.04-1.168-4.584-1.68c-1.752-0.584-3.544-1.08-5.344-1.56c-1.448-0.384-2.88-0.8-4.352-1.12
		c-2.12-0.464-4.288-0.792-6.464-1.112c-1.208-0.176-2.4-0.424-3.616-0.552C142.984,256.216,139.52,256,136,256
		s-6.984,0.216-10.408,0.592c-1.216,0.128-2.408,0.376-3.616,0.552c-2.176,0.32-4.336,0.648-6.464,1.112
		c-1.472,0.32-2.904,0.736-4.352,1.12c-1.8,0.48-3.584,0.976-5.344,1.56c-1.552,0.512-3.072,1.088-4.584,1.68
		c-1.6,0.624-3.176,1.28-4.728,1.984c-1.52,0.688-3.024,1.408-4.504,2.176c-1.536,0.8-3.032,1.656-4.52,2.536
		c-1.368,0.808-2.744,1.6-4.08,2.48c-1.776,1.168-3.472,2.44-5.16,3.72c-0.936,0.712-1.904,1.36-2.816,2.104
		c-2.656,2.168-5.192,4.472-7.608,6.904c-0.12,0.12-0.224,0.256-0.336,0.376c-2.336,2.384-4.52,4.904-6.6,7.52
		c-0.136,0.168-0.288,0.312-0.424,0.48c-0.056,0.072-0.064,0.16-0.112,0.232C47.64,309.4,40,329.808,40,352
		c0,22.84,8.048,43.816,21.408,60.312c0.048,0.064,0.056,0.152,0.104,0.216c0.096,0.12,0.208,0.216,0.304,0.336
		c2.048,2.496,4.224,4.888,6.512,7.16c1.104,1.104,2.296,2.088,3.44,3.128c1.288,1.16,2.552,2.336,3.896,3.432
		c1.376,1.12,2.816,2.144,4.248,3.176c1.232,0.888,2.456,1.776,3.728,2.608c1.504,0.984,3.032,1.896,4.584,2.784
		c1.328,0.768,2.672,1.504,4.04,2.208c1.544,0.792,3.096,1.552,4.672,2.256c1.512,0.68,3.056,1.288,4.608,1.888
		c1.512,0.584,3.008,1.168,4.552,1.672c1.776,0.584,3.584,1.064,5.4,1.544c1.4,0.368,2.776,0.776,4.2,1.08
		c2.152,0.464,4.36,0.792,6.56,1.104c1.144,0.168,2.272,0.4,3.432,0.528c3.4,0.36,6.832,0.568,10.312,0.568
		s6.912-0.208,10.304-0.576c1.152-0.12,2.28-0.36,3.432-0.528c2.208-0.32,4.408-0.64,6.56-1.104c1.416-0.304,2.8-0.712,4.2-1.08
		c1.816-0.48,3.632-0.96,5.4-1.544c1.536-0.504,3.04-1.088,4.552-1.672c1.552-0.6,3.096-1.208,4.608-1.888
		c1.584-0.704,3.136-1.464,4.672-2.256c1.368-0.704,2.712-1.44,4.04-2.208c1.552-0.896,3.08-1.808,4.584-2.784
		c1.272-0.832,2.496-1.72,3.728-2.608c1.432-1.04,2.864-2.056,4.248-3.176c1.344-1.088,2.608-2.272,3.896-3.432
		c1.152-1.04,2.336-2.024,3.44-3.128c2.288-2.28,4.464-4.664,6.512-7.16c0.096-0.12,0.208-0.216,0.304-0.336
		c0.048-0.064,0.056-0.152,0.104-0.216C223.952,395.816,232,374.84,232,352C232,329.808,224.36,309.4,211.664,293.128z
		 M201.72,397.504c-4.64-2-9.576-3.744-14.744-5.28c2.52-9.568,4.184-19.976,4.768-31.024h23.688
		C213.888,374.584,209.04,386.952,201.72,397.504z M188.216,412.472c-0.664,0.576-1.32,1.168-2.008,1.72
		c-1.36,1.104-2.768,2.136-4.2,3.144c-0.632,0.448-1.248,0.904-1.888,1.336c-1.504,1-3.056,1.92-4.624,2.816
		c-0.288,0.168-0.584,0.336-0.872,0.496c2.712-4.392,5.168-9.24,7.312-14.504c2.976,0.872,5.96,1.728,8.736,2.768
		C189.864,411,189.056,411.752,188.216,412.472z M91.88,418.672c-0.64-0.424-1.264-0.888-1.888-1.336
		c-1.432-1.008-2.84-2.048-4.2-3.144c-0.68-0.552-1.344-1.144-2.008-1.72c-0.832-0.72-1.64-1.472-2.448-2.224
		c2.768-1.04,5.76-1.896,8.736-2.768c2.144,5.272,4.6,10.112,7.312,14.504c-0.296-0.16-0.584-0.336-0.872-0.496
		C94.936,420.584,93.384,419.664,91.88,418.672z M56.576,361.2h23.688c0.584,11.048,2.248,21.456,4.768,31.024
		c-5.168,1.528-10.112,3.28-14.744,5.28C62.96,386.952,58.112,374.584,56.576,361.2z M69.2,308.104
		c4.664,2.208,9.792,4.144,15.24,5.832c-2.368,9.656-3.808,20.192-4.24,31.272H56.344C57.496,331.584,62.056,318.928,69.2,308.104z
		 M87.952,288.192c1.168-0.888,2.32-1.8,3.528-2.616c1.576-1.056,3.216-2.016,4.864-2.96c0.36-0.208,0.704-0.44,1.064-0.632
		c-3.088,4.992-5.856,10.552-8.2,16.664c-3.336-1.024-6.552-2.128-9.528-3.36c1.832-1.832,3.744-3.552,5.728-5.184
		C86.224,289.424,87.104,288.832,87.952,288.192z M180.52,285.576c1.208,0.816,2.36,1.728,3.528,2.616
		c0.848,0.64,1.728,1.24,2.552,1.912c1.976,1.632,3.896,3.352,5.728,5.184c-2.968,1.24-6.192,2.336-9.528,3.36
		c-2.344-6.112-5.112-11.672-8.2-16.664c0.36,0.2,0.704,0.432,1.064,0.632C177.304,283.56,178.952,284.52,180.52,285.576z
		 M128,305.024c-7.984-0.352-15.76-1.232-23.112-2.576c5.776-14.36,13.912-24.848,23.112-28.76V305.024z M128,320.992V345.2H96.176
		c0.432-9.696,1.784-18.936,3.856-27.416C108.888,319.512,118.28,320.608,128,320.992z M128,361.2v24.2
		c-9.464,0.376-18.656,1.424-27.408,3.08c-2.216-8.392-3.704-17.592-4.288-27.28H128z M128,401.52v28.792
		c-8.72-3.704-16.472-13.328-22.176-26.544C112.904,402.536,120.36,401.848,128,401.52z M144,401.52
		c7.64,0.328,15.096,1.016,22.176,2.248c-5.704,13.216-13.464,22.84-22.176,26.544V401.52z M144,385.4v-24.2h31.696
		c-0.584,9.68-2.072,18.888-4.288,27.28C162.656,386.824,153.464,385.776,144,385.4z M144,345.2v-24.208
		c9.72-0.384,19.112-1.48,27.96-3.208c2.072,8.48,3.432,17.72,3.856,27.416H144z M144,305.024v-31.336
		c9.2,3.912,17.336,14.4,23.112,28.76C159.76,303.784,151.984,304.672,144,305.024z M191.808,345.2
		c-0.432-11.08-1.872-21.616-4.24-31.272c5.448-1.68,10.568-3.616,15.24-5.832c7.144,10.832,11.696,23.48,12.856,37.104H191.808z"/>
	<path style="fill:#2D2D2D;" d="M472,16H272V8c0-4.424-3.584-8-8-8H8C3.584,0,0,3.576,0,8v464c0,4.424,3.584,8,8,8h256
		c4.416,0,8-3.576,8-8v-8h200c4.416,0,8-3.576,8-8V24C480,19.576,476.416,16,472,16z M256,464H16V16h240V464z M464,448H272V32h192
		V448z"/>
	<path style="fill:#2D2D2D;" d="M56,192h144c4.408,0,8,3.584,8,8s-3.592,8-8,8h-48c-13.232,0-24,10.768-24,24v8h16v-8
		c0-4.416,3.592-8,8-8h48c13.232,0,24-10.768,24-24s-10.768-24-24-24H56c-4.408,0-8-3.584-8-8v-8H32v8C32,181.232,42.768,192,56,192
		z"/>
	<rect x="32" y="128" style="fill:#2D2D2D;" width="16" height="16"/>
	<path style="fill:#2D2D2D;" d="M360,128c13.232,0,24-10.768,24-24s-10.768-24-24-24s-24,10.768-24,24S346.768,128,360,128z M360,96
		c4.408,0,8,3.584,8,8s-3.592,8-8,8s-8-3.584-8-8S355.592,96,360,96z"/>
	<path style="fill:#2D2D2D;" d="M296,232h144c4.416,0,8-3.576,8-8V56c0-4.424-3.584-8-8-8H296c-4.416,0-8,3.576-8,8v168
		C288,228.424,291.584,232,296,232z M304,216v-16h56h72v16H304z M310.952,184L328,158.424L345.048,184H310.952z M374.432,184
		L400,143.096L425.568,184H374.432z M432,64v100.104l-25.216-40.344c-2.928-4.672-10.64-4.672-13.568,0l-33.432,53.496
		l-25.128-37.688c-2.968-4.456-10.344-4.456-13.312,0L304,165.576V64H432z"/>
	<rect x="296" y="296" style="fill:#2D2D2D;" width="144" height="16"/>
	<rect x="296.96" y="336" style="fill:#2D2D2D;" width="144" height="16"/>
	<rect x="296" y="376" style="fill:#2D2D2D;" width="144" height="16"/>
	<rect x="328" y="416" style="fill:#2D2D2D;" width="16" height="16"/>
	<rect x="360" y="416" style="fill:#2D2D2D;" width="16" height="16"/>
	<rect x="392" y="416" style="fill:#2D2D2D;" width="16" height="16"/>
	<rect x="320" y="256" style="fill:#2D2D2D;" width="96" height="16"/>
</g>
<g>
</g>
<g>
</g>
<g>
</g>
<g>
</g>
<g>
</g>
<g>
</g>
<g>
</g>
<g>
</g>
<g>
</g>
<g>
</g>
<g>
</g>
<g>
</g>
<g>
</g>
<g>
</g>
<g>
</g>
</svg>
