<svg class="ghost-svg" viewBox="" xmlns="http://www.w3.org/2000/svg" style="height:35px;"><title>Ghost Logo</title>
          <path fill="#58595B" d="M11.5,20.5c-2.7-0.5-4.6-3.1-4-5.9s3.1-4.6,5.9-4c1.4,0.3,2.3,1.6,2,2.9s-1.6,2.3-2.9,2
	c-1.4-0.3-2.7,0.7-2.9,2C9.2,18.9,10.1,20.2,11.5,20.5L11.5,20.5c0.5-2.7,3.1-4.6,5.9-4c2.7,0.5,4.6,3.1,4,5.9
	c-0.3,1.4-1.6,2.3-2.9,2s-2.3-1.6-2-2.9c0.3-1.4-0.7-2.7-2-2.9S11.8,19.1,11.5,20.5c2.7,0.5,4.6,3.1,4,5.9c-0.5,2.7-3.1,4.6-5.9,4
	c-1.4-0.3-2.3-1.6-2-2.9c0.3-1.4,1.6-2.3,2.9-2s2.7-0.7,2.9-2C13.8,22.1,12.9,20.8,11.5,20.5c-0.5,2.7-3.1,4.6-5.9,4
	c-2.7-0.5-4.6-3.1-4-5.9c0.3-1.4,1.6-2.3,2.9-2s2.3,1.6,2,2.9c-0.3,1.4,0.7,2.7,2,2.9S11.2,21.9,11.5,20.5"></path>
<g>
	<path d="M30.5,16.4c0,0.3,0.1,0.5,0.4,0.8s1.1,0.8,2.4,1.5c1.4,0.7,2.3,1.4,2.7,2.1c0.5,0.7,0.7,1.4,0.7,2.2c0,1.2-0.5,2.1-1.5,2.8
		s-2.3,1.1-3.8,1.1c-0.9,0-1.7-0.2-2.6-0.6s-1.3-0.8-1.3-1.2c0-0.3,0-0.7-0.1-1.2c0-0.5-0.1-0.8-0.1-1.1c0-0.6,0.3-0.9,0.8-0.9
		c0.2,0,0.3,0.1,0.4,0.2c0.1,0.1,0.3,0.6,0.6,1.3s0.6,1.2,1,1.5c0.4,0.3,0.9,0.4,1.4,0.4c0.6,0,1.1-0.2,1.6-0.6
		c0.4-0.4,0.6-0.9,0.6-1.6c0-0.4-0.1-0.8-0.4-1.2c-0.3-0.4-1.1-0.9-2.4-1.5s-2.1-1.2-2.5-1.8c-0.4-0.6-0.6-1.2-0.6-1.9
		c0-0.9,0.4-1.7,1.3-2.3s1.8-0.9,3-0.9c0.9,0,1.9,0.2,2.7,0.5s1.3,0.7,1.3,1c0,0.2,0,0.5,0.1,0.8s0.1,0.6,0.1,0.8
		c0,0.2-0.1,0.5-0.2,0.7c-0.1,0.2-0.3,0.3-0.5,0.3c-0.3,0-0.5-0.1-0.6-0.2s-0.2-0.4-0.3-0.7s-0.2-0.6-0.5-0.8
		c-0.2-0.2-0.5-0.4-0.8-0.5c-0.3-0.2-0.7-0.2-1.2-0.2c-0.4,0-0.8,0.1-1.2,0.4S30.5,16.1,30.5,16.4z"></path>
	<path d="M56.8,17.2c0.3-0.6,0.4-0.9,0.4-1c0-0.2-0.1-0.3-0.2-0.4s-0.4-0.2-0.8-0.2s-0.7-0.1-0.8-0.2s-0.2-0.2-0.2-0.4
		c0-0.3,0.1-0.5,0.2-0.6c0.2-0.1,0.4-0.2,0.8-0.2c0.1,0,0.4,0,0.9,0.1c0.5,0.1,0.9,0.1,1.3,0.1c0.1,0,0.3,0,0.8-0.1
		c0.4-0.1,0.8-0.1,1.2-0.1c0.6,0,0.8,0.2,0.8,0.6c0,0.4-0.4,0.7-1.1,0.8c-0.6,0.1-1.2,0.7-1.6,1.8l-3.5,8.4c-0.3,0.7-0.5,1-0.8,1
		s-0.5-0.2-0.6-0.5c-0.1-0.3-0.2-0.5-0.2-0.6l-3.5-6.3c-0.2-0.3-0.3-0.5-0.5-0.5c-0.1,0-0.2,0.2-0.4,0.5l-2.7,6.5L46,26.1
		c-0.2,0.5-0.5,0.8-0.7,0.8c-0.2,0-0.3-0.1-0.4-0.2c-0.1-0.1-0.2-0.4-0.4-0.7l-4.2-8.6c-0.5-1.1-1.1-1.6-1.7-1.6
		c-0.4,0-0.7-0.1-0.9-0.2s-0.3-0.3-0.3-0.5c0-0.5,0.3-0.7,0.9-0.7c0.6,0,1.1,0,1.6,0.1c0.5,0.1,0.9,0.1,1.2,0.1c0.2,0,0.5,0,1-0.1
		c0.5-0.1,0.8-0.1,1-0.1c0.4,0,0.7,0.1,0.9,0.2c0.2,0.1,0.3,0.3,0.3,0.6c0,0.3-0.2,0.5-0.7,0.7s-0.7,0.4-0.7,0.7
		c0,0.1,0.1,0.4,0.4,0.9l2.4,4.7c0.1,0.3,0.3,0.4,0.4,0.4c0.1,0,0.2-0.1,0.3-0.4l2.5-5.8c0.3-0.7,0.5-1.1,0.6-1.4s0.3-0.3,0.5-0.3
		c0.2,0,0.4,0.2,0.6,0.7l3.8,6.9c0.1,0.2,0.2,0.3,0.3,0.3c0.1,0,0.2-0.1,0.3-0.3L56.8,17.2z"></path>
	<path d="M74.2,23.3c0,0.8,0.6,1.4,1.7,1.8c0.3,0.1,0.5,0.2,0.6,0.3c0.1,0.1,0.2,0.3,0.2,0.6c0,0.2-0.1,0.3-0.3,0.4
		s-0.4,0.2-0.6,0.2c-0.2,0-0.5-0.1-0.9-0.2s-0.7-0.2-0.9-0.2c-0.3,0-0.6,0.1-1,0.2s-0.7,0.2-0.8,0.2c-0.2,0-0.3-0.1-0.5-0.2
		s-0.2-0.2-0.2-0.4c0-0.2-0.1-0.3-0.2-0.3c-0.1,0-0.2,0-0.3,0.1c-1.3,0.8-2.8,1.2-4.3,1.2c-0.7,0-1.5-0.2-2.4-0.6s-1.6-1-2.2-1.7
		s-0.8-1.7-0.8-2.9c0-1.2,0.6-2.3,1.7-3.2c1.2-0.9,2.7-1.4,4.5-1.4c0.6,0,1.3,0.2,2,0.5c0.7,0.3,1.1,0.7,1.1,1.1
		c0,0.2-0.1,0.3-0.2,0.4s-0.3,0.2-0.6,0.2c-0.2,0-0.5-0.1-0.9-0.3s-0.9-0.3-1.4-0.3c-1,0-1.8,0.3-2.4,0.9c-0.6,0.6-0.9,1.3-0.9,2.3
		c0,1.1,0.4,1.9,1.1,2.5c0.7,0.6,1.6,0.9,2.5,0.9c0.9,0,1.6-0.3,2.4-0.8s1.1-1.3,1.1-2.3v-4.8c0-0.7-0.2-1.3-0.7-1.7
		s-1.1-0.7-1.9-0.7c-1,0-2,0.3-3,1c-0.3,0.2-0.5,0.3-0.7,0.3c-0.3,0-0.5-0.1-0.7-0.2c-0.2-0.1-0.3-0.3-0.3-0.6
		c0-0.6,0.5-1.1,1.6-1.5s2.2-0.6,3.4-0.6c1.5,0,2.8,0.4,3.7,1.2c0.9,0.8,1.4,1.7,1.4,2.8V23.3z"></path>
	<path d="M81.1,16.4c0,0.3,0.1,0.5,0.4,0.8s1.1,0.8,2.4,1.5c1.4,0.7,2.3,1.4,2.7,2.1c0.5,0.7,0.7,1.4,0.7,2.2c0,1.2-0.5,2.1-1.5,2.8
		s-2.3,1.1-3.8,1.1c-0.9,0-1.7-0.2-2.6-0.6s-1.3-0.8-1.3-1.2c0-0.3,0-0.7-0.1-1.2c0-0.5-0.1-0.8-0.1-1.1c0-0.6,0.3-0.9,0.8-0.9
		c0.2,0,0.3,0.1,0.4,0.2c0.1,0.1,0.3,0.6,0.6,1.3s0.6,1.2,1,1.5c0.4,0.3,0.9,0.4,1.4,0.4c0.6,0,1.1-0.2,1.6-0.6
		c0.4-0.4,0.6-0.9,0.6-1.6c0-0.4-0.1-0.8-0.4-1.2c-0.3-0.4-1.1-0.9-2.4-1.5s-2.1-1.2-2.5-1.8c-0.4-0.6-0.6-1.2-0.6-1.9
		c0-0.9,0.4-1.7,1.3-2.3s1.8-0.9,3-0.9c0.9,0,1.9,0.2,2.7,0.5s1.3,0.7,1.3,1c0,0.2,0,0.5,0.1,0.8s0.1,0.6,0.1,0.8
		c0,0.2-0.1,0.5-0.2,0.7c-0.1,0.2-0.3,0.3-0.5,0.3c-0.3,0-0.5-0.1-0.6-0.2s-0.2-0.4-0.3-0.7s-0.2-0.6-0.5-0.8
		c-0.2-0.2-0.5-0.4-0.8-0.5c-0.3-0.2-0.7-0.2-1.2-0.2c-0.4,0-0.8,0.1-1.2,0.4S81.1,16.1,81.1,16.4z"></path>
	<path d="M94.1,22.4c0,1,0,1.6,0.1,1.9s0.3,0.4,0.5,0.4c0.4,0,0.9-0.2,1.4-0.6s0.9-0.6,1.1-0.6c0.2,0,0.3,0.1,0.4,0.2
		c0.1,0.1,0.2,0.3,0.2,0.5c0,0.3-0.5,0.9-1.4,1.6s-1.7,1.1-2.4,1.1c-1.9,0-2.8-1.4-2.8-4.1v-6.8c0-0.2,0-0.3-0.1-0.4s-0.4,0-1,0
		c-0.5,0-0.8-0.1-0.9-0.2S89,15.2,89,14.9c0-0.2,0.1-0.4,0.2-0.5s0.4-0.2,0.7-0.3s0.6-0.2,0.8-0.4s0.5-0.4,0.8-0.8s0.6-1,0.7-1.8
		s0.2-1.9,0.2-3.3c0-0.7,0.2-1,0.6-1c0.4,0,0.7,0.1,0.8,0.3s0.2,0.5,0.2,1v5.9c0,0.2,0.2,0.4,0.5,0.4H97c0.5,0,0.8,0.2,0.8,0.7
		c0,0.5-0.4,0.8-1.1,0.8h-2.2c-0.2,0-0.3,0-0.3,0.1s-0.1,0.2-0.1,0.4V22.4z"></path>
	<path d="M105,23.6c0,0.6,0.1,0.9,0.3,1.1s0.5,0.3,0.8,0.3s0.6,0.1,0.7,0.2c0.1,0.1,0.2,0.3,0.2,0.6c0,0.4-0.3,0.6-1,0.6
		c-0.3,0-0.7,0-1.3-0.1c-0.6-0.1-1-0.1-1.3-0.1c-0.3,0-0.7,0-1.2,0.1c-0.5,0.1-0.9,0.1-1.2,0.1c-0.3,0-0.5-0.1-0.7-0.2
		c-0.2-0.2-0.3-0.4-0.3-0.6c0-0.2,0.1-0.3,0.2-0.4c0.1-0.1,0.4-0.2,0.8-0.3s0.7-0.2,0.9-0.4c0.2-0.2,0.3-0.7,0.3-1.5v-5.9
		c0-0.5-0.1-0.8-0.3-1c-0.2-0.2-0.5-0.3-0.9-0.4c-0.4-0.1-0.7-0.2-0.8-0.3c-0.1-0.1-0.1-0.3-0.1-0.5c0-0.2,0.1-0.4,0.3-0.5
		c0.2-0.1,0.4-0.2,0.6-0.2c0.2,0,0.5,0,0.9,0.1s0.6,0.1,0.8,0.1c0.2,0,0.5,0,0.9-0.1c0.4-0.1,0.7-0.1,0.9-0.1c0.4,0,0.7,0.4,0.7,1.1
		c0,0.1,0,0.3,0,0.5s0,0.3,0,0.4V23.6z M103.5,8.3c0.5,0,1,0.2,1.4,0.6c0.4,0.4,0.6,0.9,0.6,1.4c0,0.5-0.2,0.9-0.6,1.2
		c-0.4,0.3-0.8,0.5-1.4,0.5c-0.5,0-1-0.2-1.4-0.6c-0.4-0.4-0.6-0.8-0.6-1.3c0-0.5,0.2-0.9,0.6-1.3S103,8.3,103.5,8.3z"></path>
	<path d="M122.5,24.2c0.3,0.3,0.6,0.4,1,0.4c0.2,0,0.5-0.2,0.8-0.5c0.3-0.4,0.5-0.5,0.7-0.5c0.2,0,0.3,0.1,0.5,0.3s0.2,0.3,0.2,0.5
		c0,0.6-0.3,1.2-1,1.8s-1.3,0.9-1.9,0.9c-0.5,0-1.2-0.3-1.9-0.8c-0.7-0.5-1.8-1.6-3.2-3.3c-1-1.2-1.6-1.8-1.9-1.8
		c-0.1,0-0.2,0.1-0.5,0.3s-0.5,0.5-0.8,0.7s-0.4,0.4-0.4,0.6s0,0.6,0,1.2c0,0.3,0.1,0.6,0.2,0.8s0.5,0.4,1.1,0.4s0.9,0.2,1,0.3
		s0.2,0.3,0.2,0.5c0,0.2-0.1,0.3-0.2,0.4c-0.1,0.1-0.3,0.2-0.7,0.2c-0.4,0-0.9,0-1.6-0.1c-0.7-0.1-1.2-0.1-1.6-0.1
		c-0.3,0-0.8,0-1.4,0.1c-0.6,0.1-1.1,0.1-1.4,0.1c-0.7,0-1.1-0.2-1.1-0.7c0-0.2,0.1-0.4,0.2-0.5s0.5-0.2,1.1-0.3
		c0.6-0.1,1-0.2,1.2-0.5s0.3-0.6,0.3-1V4.4c0-0.3-0.1-0.6-0.3-0.8c-0.2-0.2-0.5-0.4-1.1-0.6s-0.9-0.3-1.1-0.4
		c-0.1-0.1-0.2-0.3-0.2-0.5c0-0.2,0.1-0.3,0.3-0.4s0.4-0.2,0.6-0.2s0.5,0.1,0.9,0.2s0.7,0.2,1,0.2c0.3,0,0.6,0,1-0.1
		s0.6-0.1,0.8-0.1c0.2,0,0.4,0.1,0.5,0.2c0.1,0.1,0.2,0.5,0.3,0.9c0.1,0.5,0.1,1.5,0.1,3v13.9c0,0.3,0.1,0.4,0.3,0.4
		c0.1,0,0.6-0.4,1.4-1.2l2.3-2.4c0.1-0.1,0.2-0.2,0.2-0.3c0-0.1-0.1-0.2-0.4-0.3c-0.3-0.1-0.4-0.3-0.4-0.5c0-0.2,0.1-0.4,0.2-0.6
		c0.1-0.1,0.3-0.2,0.7-0.2c0.2,0,0.6,0,1.1,0.1s0.8,0.1,1.1,0.1c0.3,0,0.8,0,1.4-0.1c0.6-0.1,1.1-0.1,1.4-0.1c0.3,0,0.6,0.1,0.9,0.2
		c0.3,0.1,0.4,0.3,0.4,0.6c0,0.5-0.4,0.7-1.3,0.7c-1.3,0-2.2,0.1-2.6,0.3c-0.5,0.2-1,0.6-1.6,1.2c-0.6,0.6-0.9,1-1,1
		c-0.1,0.1-0.1,0.2-0.1,0.4c0,0.3,0.1,0.6,0.4,0.9L122.5,24.2z"></path>
	<path d="M139.4,23.3c0,0.8,0.6,1.4,1.7,1.8c0.3,0.1,0.5,0.2,0.6,0.3c0.1,0.1,0.2,0.3,0.2,0.6c0,0.2-0.1,0.3-0.3,0.4
		s-0.4,0.2-0.6,0.2c-0.2,0-0.5-0.1-0.9-0.2s-0.7-0.2-0.9-0.2c-0.3,0-0.6,0.1-1,0.2s-0.7,0.2-0.8,0.2c-0.2,0-0.3-0.1-0.5-0.2
		s-0.2-0.2-0.2-0.4c0-0.2-0.1-0.3-0.2-0.3c-0.1,0-0.2,0-0.3,0.1c-1.3,0.8-2.8,1.2-4.3,1.2c-0.7,0-1.5-0.2-2.4-0.6s-1.6-1-2.2-1.7
		s-0.8-1.7-0.8-2.9c0-1.2,0.6-2.3,1.7-3.2c1.2-0.9,2.7-1.4,4.5-1.4c0.6,0,1.3,0.2,2,0.5c0.7,0.3,1.1,0.7,1.1,1.1
		c0,0.2-0.1,0.3-0.2,0.4s-0.3,0.2-0.6,0.2c-0.2,0-0.5-0.1-0.9-0.3s-0.9-0.3-1.4-0.3c-1,0-1.8,0.3-2.4,0.9c-0.6,0.6-0.9,1.3-0.9,2.3
		c0,1.1,0.4,1.9,1.1,2.5c0.7,0.6,1.6,0.9,2.5,0.9c0.9,0,1.6-0.3,2.4-0.8s1.1-1.3,1.1-2.3v-4.8c0-0.7-0.2-1.3-0.7-1.7
		s-1.1-0.7-1.9-0.7c-1,0-2,0.3-3,1c-0.3,0.2-0.5,0.3-0.7,0.3c-0.3,0-0.5-0.1-0.7-0.2c-0.2-0.1-0.3-0.3-0.3-0.6
		c0-0.6,0.5-1.1,1.6-1.5s2.2-0.6,3.4-0.6c1.5,0,2.8,0.4,3.7,1.2c0.9,0.8,1.4,1.7,1.4,2.8V23.3z"></path>
</g>

          </svg>